<?xml version="1.0" encoding="utf-8"?>
<!-- Generator: Adobe Illustrator 24.3.0, SVG Export Plug-In . SVG Version: 6.00 Build 0)  -->
<svg version="1.1" id="Слой_1" xmlns="http://www.w3.org/2000/svg" xmlns:xlink="http://www.w3.org/1999/xlink" x="0px" y="0px"
	 viewBox="0 0 1214.8 412.7" style="enable-background:new 0 0 1214.8 412.7;" xml:space="preserve">
<style type="text/css">
	.st0{fill:#FFFFFF;}
</style>
<g>
	<path class="st0" d="M0.1,409.6c0-66.5,0-132.3,0-198.5c1.5-0.1,2.9-0.4,4.4-0.4c47.5,0,95-0.3,142.5,0.2
		c17.5,0.2,34,4.8,46.3,18.7c7.5,8.4,11.5,18.3,12.1,29.4c0.7,11.2-0.5,22.2-7.3,31.4c-4.5,6.1-10.7,10.9-16.2,16.3
		c-1.1,1.1-2.5,1.8-4.2,3.1c3.3,2.4,6.1,4.4,8.7,6.5c16,12.6,22.8,28.9,19.9,49.3c-3.6,25.7-22.2,39.8-45.4,42.5
		c-10.2,1.2-20.6,1.5-30.9,1.6c-41.5,0.2-83,0.1-124.5,0.1C3.9,409.6,2.3,409.6,0.1,409.6z M64.7,334c0,7.5,0,14.6,0,22.3
		c1.7,0,3.2,0,4.6,0c19.1,0,38.2,0,57.4,0c7.9,0,12.6-4.2,12.6-11.1c0-7.2-4.6-11.4-12.7-11.4c-19.2,0-38.5,0-57.7,0
		C67.6,333.8,66.2,333.9,64.7,334z M64.8,285.9c1.2,0.3,1.8,0.6,2.4,0.6c20.6,0,41.2,0.2,61.8,0c6.4-0.1,10.6-5.5,10.4-12.2
		c-0.2-5.7-5.1-10.1-11.2-10.2c-19.7,0-39.5,0-59.2,0c-1.3,0-2.7,0.1-4.1,0.2C64.8,271.6,64.8,278.6,64.8,285.9z"/>
	<path class="st0" d="M593.5,409.3c0-35,0-69.9,0-104.9c-0.5-0.2-1.1-0.4-1.6-0.6c-2.4,3.1-4.9,6.1-7.3,9.3
		c-23.1,31.2-46.1,62.5-69.2,93.7c-1,1.3-2.9,2.7-4.5,2.7c-20.4,0.2-40.7,0.1-61.1,0.1c-0.5,0-1-0.2-1.8-0.4c0-65.9,0-131.8,0-198.1
		c21.2,0,42.3,0,64.6,0c0,35,0,70,0,105c0.5,0.1,1,0.2,1.5,0.2c6.1-8.1,12.1-16.2,18.2-24.4c19.4-26.3,38.8-52.6,58.3-78.8
		c0.9-1.3,3.1-2.3,4.6-2.3c19.5-0.2,39-0.1,58.5-0.1c1.3,0,2.6,0.5,3.8,0.8c0,66.1,0,131.8,0,197.8
		C636.3,409.3,615.5,409.3,593.5,409.3z"/>
	<path class="st0" d="M323.8,413.3c-58.1,0.5-100.6-46.1-103.4-96c-3.7-65.5,47.2-110.9,102.6-110.9c58.8,0,104.8,45.5,104.2,105.4
		C426.7,367.4,381,413.8,323.8,413.3z M291,304.2c-0.3,4.2-1.5,8.7-0.6,12.7c3.6,15.9,17.2,27.8,34,27.2
		c13.7-0.5,24.2-7.2,30.2-20.2c10.2-22.2-6.2-48-30.5-48C307,276,294.2,286.6,291,304.2z"/>
	<path class="st0" d="M901,211.1c0,66.3,0,132.2,0,198.2c-20.5,0-40.5,0-61.9,0c0.1,0-1-0.4-2.4-1c0-24.7,0-49.2,0-74.1
		c-26.5,0-52.6,0-79.5,0c0,25.2,0,50.2,0,74.9c-21.8,0-42.8,0-64.1,0c0-66.2,0-131.9,0-198c21.3,0,42.5,0,64.2,0c0,25.1,0,50,0,75.2
		c26.7,0,52.7,0,79.4,0c0-24.9,0-49.8,0-75.2C858.4,211.1,879.6,211.1,901,211.1z"/>
	<path class="st0" d="M936.9,211c21.3,0,42.4,0,64.2,0c0,25,0,49.8,0,75.1c2.3,0.2,3.9,0.4,5.4,0.4c20.8,0,41.5-0.3,62.2,0.1
		c16.6,0.3,31.5,5.7,43.2,18c9.6,10.1,15.2,22.2,16.7,36.2c2.1,20.3-4.1,37.8-18.7,51.9c-10.8,10.4-24.3,15.8-39.2,16
		c-42.9,0.6-85.9,0.7-128.8,0.9c-1.6,0-3.2-0.2-5-0.2C936.9,343.1,936.9,277.2,936.9,211z M1001.2,334.1c0,8.1,0,15.4,0,22.9
		c17.1,0,33.3,0.2,49.5-0.1c7.3-0.1,12.2-6,11.9-13c-0.3-5.8-5.6-10.1-12.5-10.1c-14.8,0-29.7,0-44.5,0
		C1004.1,333.8,1002.7,334,1001.2,334.1z"/>
	<path class="st0" d="M1149.2,210.9c21.4,0,42.3,0,63.7,0c0,66.2,0,132.1,0,198.4c-21.2,0-42.2,0-63.7,0
		C1149.2,343.3,1149.2,277.3,1149.2,210.9z"/>
	<path class="st0" d="M1044.9,142.2c0-38.4,0-76.4,0-114.9c37.3,0,74.4,0,111.9,0c0,9.5,0,19,0,28.9c-25,0-50.1,0-75.6,0
		c0,5.4,0,10.2,0,15.6c25.1,0,50.2,0,75.7,0c0,8.6,0,16.8,0,26c-25.2,0-50.5,0-76,0c0,5.6,0,10.2,0,15.2c44.1,0,88.1,0,132.2,0
		c0,9.9,0,19.4,0,29.1C1157.3,142.2,1101.3,142.2,1044.9,142.2z"/>
	<path class="st0" d="M180.2,26.9c10.8,0,21.3,0,31.8,0c17.6,0,35.2-0.1,52.8,0c8.5,0,16.4,2.1,23.5,7.1c8.2,5.7,13,20,10.4,29.7
		c-2.2,8-6.6,14-13.6,18.3c-0.9,0.5-1.7,1.3-2.9,2.3c2.8,2.2,5.2,4.1,7.5,6.1c10.8,9.5,12.8,21.2,7.8,34.1
		c-4.6,12-14.7,16.8-26.6,17.1c-29.3,0.7-58.6,0.7-88,0.9c-0.8,0-1.7-0.2-2.8-0.4C180.2,103.7,180.2,65.6,180.2,26.9z M215.5,55.4
		c0,5.9,0,11,0,16.5c13.8,0,27.2,0,40.7,0c1,0,2.2-0.6,3-1.2c2.7-2.2,4.6-4.7,3.4-8.7c-1.3-4.7-4.7-6.4-8.9-6.5
		c-8-0.2-16-0.1-24-0.1C225.2,55.4,220.6,55.4,215.5,55.4z M216.4,97.5c0,5.4,0,10.3,0,15.5c13.5,0,26.5,0.3,39.5-0.2
		c3.8-0.1,6.7-3.5,6.4-7.9c-0.3-4.3-2.9-7.2-7.1-7.3C242.3,97.3,229.5,97.5,216.4,97.5z"/>
	<path class="st0" d="M56.6,97.5c0-8.7,0-16.9,0-25.5c1.9,0,3.2,0,4.5,0c17.2,0,34.5,0.1,51.7-0.1c2.8,0,6.4-1.1,8.2-3
		c1.6-1.7,2.5-5.8,1.6-7.9c-0.9-2.1-4.4-4.4-6.8-4.5c-18-0.4-36-0.2-54-0.2c-1.5,0-3,0-5.2,0c0-9.7,0-19.2,0-29.3c1.7,0,3,0,4.4,0
		c22.1,0,44.2-0.4,66.4,0.1c16,0.4,29.2,7,32.4,23.5c2.4,12.7-1.1,23.4-12.3,30.9c-1.3,0.9-3,1.3-4.1,2.5c8.5,5.9,14.6,11.5,16.8,20
		c4.2,16.9-1.6,32.5-22.1,36.9c-6,1.3-12.3,1.6-18.5,1.6c-37.7,0.1-75.5,0.1-113.2,0c-2.1,0-4.1-0.4-6.4-0.6c0-9.6,0-18.8,0-28.7
		c1.5,0,2.9,0,4.3,0c36.5,0,73,0,109.5,0c5.6,0,9.3-2.7,9.7-7.2c0.5-5.2-2.8-8.5-8.8-8.5c-17.6,0-35.2,0-52.9,0
		C60.4,97.5,58.9,97.5,56.6,97.5z"/>
	<path class="st0" d="M428.7,71.7c0,9,0,17.1,0,25.5c-24.6,0-49,0-73.4,0c-1.1,1-2,1.8-2.8,2.6c0,3.8,0,7.4,0,11.8
		c2.4,0.5,4.8,1.5,7.3,1.5c21.5,0.1,43,0.1,64.5,0.1c1.3,0,2.7,0,4.3,0c0,9.7,0,19.2,0,29c-37.3,0-74.5,0-112,0
		c0-38.3,0-76.4,0-114.9c37.4,0,74.5,0,112,0c0,9.5,0,18.9,0,29c-25.1,0-50.3,0-75.8,0c0,4.8,0,9,0,14c1.5,0.2,3.3,0.8,5.2,0.9
		c21.9,0.1,43.7,0,65.6,0.1C425.3,71.1,426.9,71.5,428.7,71.7z"/>
	<path class="st0" d="M689.9,113.1c4.4,0,8,0,11.8,0c0,9.9,0,19.3,0,29.1c-43.2,0-86.1,0-129.7,0c0-9.3,0-18.8,0-29
		c2.6,0,5.5-0.3,8.2,0.1c4.3,0.5,6.1-1.6,6.8-5.5c2.5-14.1,5-28.3,7.6-42.4c2.3-12.7,4.6-25.3,6.9-38.2c29.4,0,58.6,0,88.4,0
		C689.9,55.5,689.9,83.9,689.9,113.1z M653.5,56.7c-7.4,0-14.5,0-21.9,0c-3.1,18.8-6.1,37.2-9.2,56c10.7,0,20.8,0,31.1,0
		C653.5,93.8,653.5,75.3,653.5,56.7z"/>
	<path class="st0" d="M756,97.9c0,14.9,0,29.3,0,44c-12.3,0-24.1,0-35.9,0c0-38.5,0-76.5,0-114.7c12,0,23.6,0,35.8,0
		c0,14.6,0,29.2,0,44.1c16.7,0,32.8,0,49.3,0c0-15,0-29.3,0-44c12.1,0,23.8,0,35.6,0c0,38.5,0,76.7,0,115c-12,0-23.4,0-35.5,0
		c0-14.8,0-29.3,0-44.3C788.8,97.9,772.8,97.9,756,97.9z"/>
	<path class="st0" d="M450.9,113c1.6-0.2,3.3-0.6,4.9-0.6c18,0,36,0,54,0c4.8,0,8-2.7,8.1-6.9c0.2-4-3.8-8-8.2-8c-18,0-36,0-54,0
		c-1.5,0-3,0-4.8,0c0-8.7,0-17.2,0-26.1c1.5-0.1,2.9-0.3,4.2-0.3c17.6,0,35.2,0,52.8,0c7.2,0,7.9-0.5,10-7.3
		c-1.7-5.8-3.9-7.6-9.8-7.6c-17.5,0-35,0-52.5,0c-1.5,0-2.9,0-4.8,0c0-9.9,0-19.3,0-29.3c1.3,0,2.8,0,4.2,0c22,0,44,0,66,0
		c9.5,0,18.6,2.5,25.3,9.1c6.3,6.2,9.1,14.7,8.1,23.9c-1.1,9.9-5.9,17.2-14.5,22.3c-0.4,0.2-0.7,0.7-1,1.1c-0.2,0.3-0.4,0.6-0.7,1.2
		c3.1,2.7,6.4,5.3,9.3,8.2c8,8.4,9.7,18.4,6.4,29.3c-2.9,9.8-9.5,16-19.4,18.1c-6.8,1.4-13.7,2.2-20.6,2.3
		c-16.2,0.3-32.5,0.2-48.7,0c-4.7,0-9.4-0.7-14.4-1.1C450.9,132.3,450.9,123.1,450.9,113z"/>
	<path class="st0" d="M861.9,27c11.7,0,23,0,35,0c0,14.8,0,29.4,0,44.4c2.1,0.2,3.5,0.5,4.9,0.5c11.8,0,23.5-0.3,35.2,0.1
		c16.3,0.5,31.9,9.6,35.1,27.6c3.6,20.4-8.5,41.4-31.4,42c-26.2,0.7-52.4,0.2-78.9,0.2C861.9,104,861.9,65.7,861.9,27z M897.2,112.9
		c1.8,0.1,3,0.3,4.2,0.3c8.4,0,16.7,0,25.1,0c5.4,0,8.6-2.9,8.6-7.7c0.1-5-3.1-8-8.6-8c-8.5,0-17,0-25.5,0c-1.2,0-2.4,0.3-3.8,0.5
		C897.2,103,897.2,107.6,897.2,112.9z"/>
	<path class="st0" d="M989.8,27.1c12.2,0,23.5,0,35.1,0c0,38.4,0,76.6,0,115.1c-11.5,0-22.9,0-35.1,0
		C989.8,104,989.8,65.6,989.8,27.1z"/>
	<path class="st0" d="M561.9,211.1c-8.8,11.9-17.2,23.2-26.2,35.5c0-12.5,0-23.8,0-35.5C544.1,211.1,552.5,211.1,561.9,211.1z"/>
	<path class="st0" d="M414.5,0.9c0,2.7,0,5,0,7.7c-9.1,0-18.1,0-27.4,0c0-2.7,0-5,0-7.7C396.3,0.9,405.2,0.9,414.5,0.9z"/>
	<path class="st0" d="M336.1,8.6c0-2.7,0-5,0-7.7c9.1,0,18,0,27.2,0c0,2.6,0,5,0,7.7C354.2,8.6,345.3,8.6,336.1,8.6z"/>
</g>
</svg>
